<svg xmlns="http://www.w3.org/2000/svg" xmlns:xlink="http://www.w3.org/1999/xlink" viewBox="0 0 639 480">  <style>    svg { font : caption; }      .idvcchart_axis { fill: none; stroke: gray; stroke-width: 1; vector-effect: non-scaling-stroke; shape-rendering: crispEdges; }      .idvcchart_axis_text { fill: #333; font-size: 95%; stroke: none; stroke-width: 1; vector-effect: non-scaling-stroke; }      .idvcchart_roofline_text { fill: gray; font-size: 90%; }      .idvcchart_roofline_text.selected { fill: #000; }      .idvcchart_roofline_text.hidden { fill: none; }      .idvcchart_roofline_explanation { fill: none; }      .idvcchart_roofline_center_marker { stroke: #000; stroke-width: 1 }      .roofline_child_line { stroke: none; fill: none; }      .roofline_parent_line { stroke: none; fill: none; }      .roofline_child_arrow { stroke: none; fill: none; }      .roofline_parent_arrow { stroke: none; fill: none; }      .roofline_loop { stroke: #000; stroke-width: 1; vector-effect: non-scaling-stroke; shape-rendering: geometricPrecision; fill: lightgray; }      .roofline_loop.no_loop_position { stroke: darkgray; fill: #eee; }      .roofline_loop.loop_inactive_result { opacity: 0.4; }      .idvcroofline_line { stroke: #999; stroke-dasharray: 4,4; fill: none; stroke-width: 1; vector-effect: non-scaling-stroke; shape-rendering: crispEdges; }      .idvcroofline_grid_line { stroke: #ddd; fill: none; stroke-width: 1; vector-effect: non-scaling-stroke; shape-rendering: crispEdges; }      .idvcroofline_line.selected { stroke: #000; shape-rendering: auto; stroke-dasharray: none; }      .idvcroofline_line_hotarea { stroke: none; fill: none; }      .roofline_roofs_cross { stroke: none; fill: none; }      .roofline_coord_line { stroke: none; fill: none; stroke-width: 1; vector-effect: non-scaling-stroke; shape-rendering: crispEdges; }      .roofline_coord_line.selected { stroke: gray; stroke-dasharray: none !important; }      .roofline_expander { stroke: none; fill: none; }      .roofline_expander_vert_line { stroke: none; fill: none; }      .roofline_expander_horz_line { stroke: none; fill: none; }      .idvcroofline_roof_crossing { stroke: none; fill: none; }      .idvcroofline_roof_crossing_line { stroke: none; fill: none; }      .idvcroofline_roof_crossing_label { stroke: none; fill: none; }      .idvcroofline_loops_matching_line { stroke: black; stroke-dasharray: 4,4; fill: none; vector-effect: non-scaling-stroke; shape-rendering: crispEdges; }      .idvcroofline_loops_matching_arrow { stroke: #000; fill: black; vector-effect: non-scaling-stroke; shape-rendering: geometricPrecision; }      .idvcroofline_loops_matching_label { font-size: 100%; }      .idvcroofline_total_value_tick_active { stroke: none; fill: none; }      .idvcroofline_total_value_tick { stroke: none; fill: none; }      .stairs_delta_line {stroke-width: 2;vector-effect: non-scaling-stroke;shape-rendering: geometricPrecision;}      .stairs_connection_line {stroke: black;stroke-width: 1;stroke-dasharray: 2,2;vector-effect: non-scaling-stroke;shape-rendering: geometricPrecision;}      .stairs_delta_ends {stroke-width: 3;vector-effect: non-scaling-stroke;shape-rendering: geometricPrecision;}      .idvc_hidden { stroke: none !important; fill: none !important; }  </style>  <g>    <svg id="vert_axis" viewBox="0 0 74 454" width="74" height="454">      <line x1="73.9375" y1="0" x2="73.9375" y2="454" class="idvcchart_axis"></line><line x1="68.4375" y1="409" x2="74.4375" y2="409" class="idvcchart_axis"></line><line x1="68.4375" y1="409" x2="74.4375" y2="409" class="idvcchart_axis_hot"></line><text x="64.4375" y="409" class="idvcchart_axis_text" style="text-anchor: end;dominant-baseline: middle">0.001</text><line x1="68.4375" y1="350" x2="74.4375" y2="350" class="idvcchart_axis"></line><line x1="68.4375" y1="350" x2="74.4375" y2="350" class="idvcchart_axis_hot"></line><text x="64.4375" y="350" class="idvcchart_axis_text" style="text-anchor: end;dominant-baseline: middle">0.01</text><line x1="68.4375" y1="292" x2="74.4375" y2="292" class="idvcchart_axis"></line><line x1="68.4375" y1="292" x2="74.4375" y2="292" class="idvcchart_axis_hot"></line><text x="64.4375" y="292" class="idvcchart_axis_text" style="text-anchor: end;dominant-baseline: middle">0.1</text><line x1="68.4375" y1="233" x2="74.4375" y2="233" class="idvcchart_axis"></line><line x1="68.4375" y1="233" x2="74.4375" y2="233" class="idvcchart_axis_hot"></line><text x="64.4375" y="233" class="idvcchart_axis_text" style="text-anchor: end;dominant-baseline: middle">1</text><line x1="68.4375" y1="174" x2="74.4375" y2="174" class="idvcchart_axis"></line><line x1="68.4375" y1="174" x2="74.4375" y2="174" class="idvcchart_axis_hot"></line><text x="64.4375" y="174" class="idvcchart_axis_text" style="text-anchor: end;dominant-baseline: middle">10</text><line x1="68.4375" y1="116" x2="74.4375" y2="116" class="idvcchart_axis"></line><line x1="68.4375" y1="116" x2="74.4375" y2="116" class="idvcchart_axis_hot"></line><text x="64.4375" y="116" class="idvcchart_axis_text" style="text-anchor: end;dominant-baseline: middle">100</text><line x1="68.4375" y1="57" x2="74.4375" y2="57" class="idvcchart_axis"></line><line x1="68.4375" y1="57" x2="74.4375" y2="57" class="idvcchart_axis_hot"></line><text x="64.4375" y="57" class="idvcchart_axis_text" style="text-anchor: end;dominant-baseline: middle">1000</text><defs><marker id="SVG_1_TotalValue" markerWidth="6" markerHeight="10" refX="1" refY="5" orient="auto" markerUnits="userSpaceOnUse"><path d="M 0 0 L 0 10 L 6 5 L 0 0" class="idvcroofline_total_value_tick"></path></marker><marker id="SVG_1_TotalValueActive" markerWidth="6" markerHeight="10" refX="1" refY="5" orient="auto" markerUnits="userSpaceOnUse"><path d="M 0 0 L 0 10 L 6 5 L 0 0" class="idvcroofline_total_value_tick_active"></path></marker></defs><line x1="68.4375" y1="105" x2="74.4375" y2="105" class="idvcchart_axis idvc_active" style="stroke: transparent; stroke-width:10; marker-start:url(#SVG_1_TotalValue)" ></line><line x1="68.4375" y1="105" x2="74.4375" y2="105" class="idvcchart_axis_hot"></line><text x="64.4375" y="105" class="" style="text-anchor: end;dominant-baseline: middle" fill="none">154.7</text>    </svg>  </g>  <g transform="translate(74, 454)">    <svg id="horz_axis" viewBox="0 0 565 26" width="565" height="26">      <line x1="0" y1="0.5" x2="564.5625" y2="0.5" class="idvcchart_axis"></line><line x1="21" y1="6" x2="21" y2="0" class="idvcchart_axis"></line><line x1="21" y1="6" x2="21" y2="0" class="idvcchart_axis_hot"></line><text x="23.6875" y="10" class="idvcchart_axis_text" style="text-anchor: middle; dominant-baseline:text-before-edge;"> 1.00e-5 </text><line x1="101" y1="6" x2="101" y2="0" class="idvcchart_axis"></line><line x1="101" y1="6" x2="101" y2="0" class="idvcchart_axis_hot"></line><text x="101" y="10" class="idvcchart_axis_text" style="text-anchor: middle; dominant-baseline:text-before-edge;"> 0.0001 </text><line x1="181" y1="6" x2="181" y2="0" class="idvcchart_axis"></line><line x1="181" y1="6" x2="181" y2="0" class="idvcchart_axis_hot"></line><text x="181" y="10" class="idvcchart_axis_text" style="text-anchor: middle; dominant-baseline:text-before-edge;"> 0.001 </text><line x1="261" y1="6" x2="261" y2="0" class="idvcchart_axis"></line><line x1="261" y1="6" x2="261" y2="0" class="idvcchart_axis_hot"></line><text x="261" y="10" class="idvcchart_axis_text" style="text-anchor: middle; dominant-baseline:text-before-edge;"> 0.01 </text><line x1="342" y1="6" x2="342" y2="0" class="idvcchart_axis"></line><line x1="342" y1="6" x2="342" y2="0" class="idvcchart_axis_hot"></line><text x="342" y="10" class="idvcchart_axis_text" style="text-anchor: middle; dominant-baseline:text-before-edge;"> 0.1 </text><line x1="422" y1="6" x2="422" y2="0" class="idvcchart_axis"></line><line x1="422" y1="6" x2="422" y2="0" class="idvcchart_axis_hot"></line><text x="422" y="10" class="idvcchart_axis_text" style="text-anchor: middle; dominant-baseline:text-before-edge;"> 1 </text><line x1="502" y1="6" x2="502" y2="0" class="idvcchart_axis"></line><line x1="502" y1="6" x2="502" y2="0" class="idvcchart_axis_hot"></line><text x="502" y="10" class="idvcchart_axis_text" style="text-anchor: middle; dominant-baseline:text-before-edge;"> 10 </text><defs><marker id="SVG_2_TotalValue" markerWidth="6" markerHeight="10" refX="1" refY="5" orient="auto" markerUnits="userSpaceOnUse"><path d="M 0 0 L 0 10 L 6 5 L 0 0" class="idvcroofline_total_value_tick"></path></marker><marker id="SVG_2_TotalValueActive" markerWidth="6" markerHeight="10" refX="1" refY="5" orient="auto" markerUnits="userSpaceOnUse"><path d="M 0 0 L 0 10 L 6 5 L 0 0" class="idvcroofline_total_value_tick_active"></path></marker></defs><line x1="395" y1="6" x2="395" y2="0" class="idvcchart_axis idvc_active" style="stroke: transparent; stroke-width:10; marker-start:url(#SVG_2_TotalValue)" ></line><line x1="395" y1="6" x2="395" y2="0" class="idvcchart_axis_hot"></line><text x="395" y="10" class="" style="text-anchor: middle; dominant-baseline:text-before-edge;" fill="none"> 0.46 </text>    </svg>  </g>  <g transform="translate(74, 0)">    <svg id="roofline_content" viewBox="0 0 565 454" width="565" height="454">      <g id="SVG_0_BackgroundLayer"><polygon fill="rgb(160, 30, 30)" style="opacity:0.14" points="518,454 518,38 565,38 565,454"></polygon><polygon fill="rgb(200, 40, 40)" style="opacity:0.1" points="252,454 252,126 372,38 518,38 518,454"></polygon><polygon fill="rgb(240, 50, 50)" style="opacity:0.06" points="0,454 0,310 252,126 252,454"></polygon><line class="idvcroofline_grid_line" x1="502" y1="454" x2="502" y2="0"></line><line class="idvcroofline_grid_line" x1="422" y1="454" x2="422" y2="0"></line><line class="idvcroofline_total_line" x1="395" y1="454" x2="395" y2="0"></line><line class="idvcroofline_grid_line" x1="342" y1="454" x2="342" y2="0"></line><line class="idvcroofline_grid_line" x1="261" y1="454" x2="261" y2="0"></line><line class="idvcroofline_grid_line" x1="181" y1="454" x2="181" y2="0"></line><line class="idvcroofline_grid_line" x1="101" y1="454" x2="101" y2="0"></line><line class="idvcroofline_grid_line" x1="21" y1="454" x2="21" y2="0"></line><line class="idvcroofline_grid_line" x1="0" y1="409" x2="565" y2="409"></line><line class="idvcroofline_grid_line" x1="0" y1="350" x2="565" y2="350"></line><line class="idvcroofline_grid_line" x1="0" y1="292" x2="565" y2="292"></line><line class="idvcroofline_grid_line" x1="0" y1="233" x2="565" y2="233"></line><line class="idvcroofline_grid_line" x1="0" y1="174" x2="565" y2="174"></line><line class="idvcroofline_grid_line" x1="0" y1="116" x2="565" y2="116"></line><line class="idvcroofline_total_line" x1="0" y1="105" x2="565" y2="105"></line><line class="idvcroofline_grid_line" x1="0" y1="57" x2="565" y2="57"></line><line class="idvcroofline_line_hotarea idvc_active" x1="0" y1="310" x2="372" y2="38"></line><line class="idvcroofline_line_hotarea idvc_active" x1="0" y1="344" x2="418" y2="38"></line><line class="idvcroofline_line_hotarea idvc_active" x1="0" y1="364" x2="446" y2="38"></line><line class="idvcroofline_line_hotarea idvc_active" x1="0" y1="416" x2="518" y2="38"></line><line class="idvcroofline_line_hotarea idvc_active" x1="372" y1="38" x2="565" y2="38"></line><line class="idvcroofline_line_hotarea idvc_active" x1="348" y1="55" x2="565" y2="55"></line><line class="idvcroofline_line_hotarea idvc_active" x1="324" y1="73" x2="565" y2="73"></line><line class="idvcroofline_line_hotarea idvc_active" x1="300" y1="91" x2="565" y2="91"></line><line class="idvcroofline_line_hotarea idvc_active" x1="252" y1="126" x2="565" y2="126"></line><text style="text-anchor: middle;opacity:0.6" fill="rgb(160, 0, 0)" x="130" y="415"></text><text style="text-anchor: middle;opacity:0.6" fill="rgb(160, 0, 0)" x="130" y="436"></text><text style="text-anchor: middle;opacity:0.6" fill="rgb(160, 0, 0)" x="389" y="415"></text><text style="text-anchor: middle;opacity:0.6" fill="rgb(160, 0, 0)" x="389" y="436"></text><text style="text-anchor: middle;opacity:0.6" fill="rgb(160, 0, 0)" x="545.5" y="415"></text><text style="text-anchor: middle;opacity:0.6" fill="rgb(160, 0, 0)" x="545.5" y="436"></text></g><g id="SVG_0_LoopsLayer"><circle class="roofline_loop idvc_active" cx="387" cy="107" r="6" style="fill:yellow !important" ></circle><circle class="roofline_loop idvc_active" cx="297" cy="222" r="4" style="fill:green !important" ></circle><circle class="roofline_loop idvc_active" cx="363" cy="215" r="4" style="fill:green !important" ></circle><circle class="roofline_loop idvc_active" cx="364" cy="260" r="4" style="fill:green !important" ></circle><circle class="roofline_loop idvc_active" cx="47" cy="391" r="4" style="fill:green !important" ></circle><circle class="roofline_loop idvc_active" cx="252" cy="324" r="4" style="fill:green !important" ></circle><circle class="roofline_loop idvc_active idvcroofline_point_current idvcroofline_point_selected" cx="396" cy="97" r="8" style="fill:red !important" ></circle></g><g id="SVG_0_RoofsLayer"><line class="idvcroofline_line L1Bandwidth" x1="0" y1="310" x2="372" y2="38" style=""></line><line class="idvcroofline_line selected" x1="0" y1="310" x2="372" y2="38" style=""></line><line class="idvcroofline_line L2Bandwidth" x1="0" y1="344" x2="418" y2="38" style=""></line><line class="idvcroofline_line DRAMBandwidth" x1="0" y1="416" x2="518" y2="38" style=""></line><line class="idvcroofline_line selected" x1="0" y1="416" x2="518" y2="38" style=""></line><line class="idvcroofline_line SPVectorFMAPeak selected" x1="372" y1="38" x2="565" y2="38"></line><line class="idvcroofline_line DPVectorFMAPeak" x1="348" y1="55" x2="565" y2="55"></line><line class="idvcroofline_line DPVectorAddPeak" x1="300" y1="91" x2="565" y2="91"></line><rect x="249" y="123" width="6" height="6" class="roofline_roofs_cross idvc_active"></rect><line x1="252" y1="129" x2="252" y2="454" class="roofline_coord_line"></line><rect x="295" y="123" width="6" height="6" class="roofline_roofs_cross idvc_active"></rect><line x1="298" y1="129" x2="298" y2="454" class="roofline_coord_line"></line><rect x="323" y="123" width="6" height="6" class="roofline_roofs_cross idvc_active"></rect><line x1="326" y1="129" x2="326" y2="454" class="roofline_coord_line"></line><rect x="394" y="123" width="6" height="6" class="roofline_roofs_cross idvc_active"></rect><line x1="397" y1="129" x2="397" y2="454" class="roofline_coord_line"></line><rect x="297" y="88" width="6" height="6" class="roofline_roofs_cross idvc_active"></rect><line x1="300" y1="94" x2="300" y2="454" class="roofline_coord_line"></line><rect x="343" y="88" width="6" height="6" class="roofline_roofs_cross idvc_active"></rect><line x1="346" y1="94" x2="346" y2="454" class="roofline_coord_line"></line><rect x="371" y="88" width="6" height="6" class="roofline_roofs_cross idvc_active"></rect><line x1="374" y1="94" x2="374" y2="454" class="roofline_coord_line"></line><rect x="442" y="88" width="6" height="6" class="roofline_roofs_cross idvc_active"></rect><line x1="445" y1="94" x2="445" y2="454" class="roofline_coord_line"></line><rect x="321" y="70" width="6" height="6" class="roofline_roofs_cross idvc_active"></rect><line x1="324" y1="76" x2="324" y2="454" class="roofline_coord_line"></line><rect x="367" y="70" width="6" height="6" class="roofline_roofs_cross idvc_active"></rect><line x1="370" y1="76" x2="370" y2="454" class="roofline_coord_line"></line><rect x="395" y="70" width="6" height="6" class="roofline_roofs_cross idvc_active"></rect><line x1="398" y1="76" x2="398" y2="454" class="roofline_coord_line"></line><rect x="466" y="70" width="6" height="6" class="roofline_roofs_cross idvc_active"></rect><line x1="469" y1="76" x2="469" y2="454" class="roofline_coord_line"></line><rect x="345" y="52" width="6" height="6" class="roofline_roofs_cross idvc_active"></rect><line x1="348" y1="58" x2="348" y2="454" class="roofline_coord_line"></line><rect x="391" y="52" width="6" height="6" class="roofline_roofs_cross idvc_active"></rect><line x1="394" y1="58" x2="394" y2="454" class="roofline_coord_line"></line><rect x="419" y="52" width="6" height="6" class="roofline_roofs_cross idvc_active"></rect><line x1="422" y1="58" x2="422" y2="454" class="roofline_coord_line"></line><rect x="490" y="52" width="6" height="6" class="roofline_roofs_cross idvc_active"></rect><line x1="493" y1="58" x2="493" y2="454" class="roofline_coord_line"></line><rect x="369" y="35" width="6" height="6" class="roofline_roofs_cross idvc_active"></rect><line x1="372" y1="41" x2="372" y2="454" class="roofline_coord_line"></line><rect x="415" y="35" width="6" height="6" class="roofline_roofs_cross idvc_active"></rect><line x1="418" y1="41" x2="418" y2="454" class="roofline_coord_line"></line><rect x="443" y="35" width="6" height="6" class="roofline_roofs_cross idvc_active"></rect><line x1="446" y1="41" x2="446" y2="454" class="roofline_coord_line"></line><rect x="515" y="35" width="6" height="6" class="roofline_roofs_cross idvc_active"></rect><line x1="518" y1="41" x2="518" y2="454" class="roofline_coord_line"></line><line class="idvcroofline_line ScalarAddPeak" x1="252" y1="126" x2="565" y2="126"></line><line class="idvcroofline_line SPVectorAddPeak" x1="324" y1="73" x2="565" y2="73"></line><line class="idvcroofline_line L3Bandwidth" x1="0" y1="364" x2="446" y2="38" style=""></line></g><g id="SVG_0_RoofsTextLayer"><text class="idvcchart_roofline_text selected" x="0" y="0" style="dominant-baseline:text-after-edge;" transform="matrix(0.807232 -0.590234 0.590234 0.807232 10.8995 300.792)">L1 Bandwidth: 8818.2 GB/sec</text><text class="idvcchart_roofline_text" x="0" y="0" style="dominant-baseline:text-after-edge;" transform="matrix(0.806896 -0.590694 0.590694 0.806896 10.8662 334.806)">L2 Bandwidth: 2362.44 GB/sec</text><text class="idvcchart_roofline_text selected" x="0" y="0" style="dominant-baseline:text-after-edge;" transform="matrix(0.807791 -0.589469 0.589469 0.807791 10.906 406.804)">DRAM Bandwidth: 136.49 GB/sec</text><text class="idvcchart_roofline_text selected" x="0" y="0" style="text-anchor: end; dominant-baseline:text-after-edge;" transform="matrix(1 0 0 1 561 37)">SP Vector FMA Peak: 2135.75 GFLOPS</text><text class="idvcchart_roofline_text" x="0" y="0" style="text-anchor: end; dominant-baseline:text-after-edge;" transform="matrix(1 0 0 1 561 54)">DP Vector FMA Peak: 1068.24 GFLOPS</text><text class="idvcchart_roofline_text" x="0" y="0" style="text-anchor: end; dominant-baseline:text-after-edge;" transform="matrix(1 0 0 1 561 90)">DP Vector Add Peak: 267 GFLOPS</text><text class="idvcchart_roofline_text" x="0" y="0" style="text-anchor: end; dominant-baseline:text-after-edge;" transform="matrix(1 0 0 1 561 125)">Scalar Add Peak: 66.81 GFLOPS</text><text class="idvcchart_roofline_text" x="0" y="0" style="text-anchor: end; dominant-baseline:text-after-edge;" transform="matrix(1 0 0 1 561 72)">SP Vector Add Peak: 533.22 GFLOPS</text><text class="idvcchart_roofline_text" x="0" y="0" style="dominant-baseline:text-after-edge;" transform="matrix(0.807325 -0.590107 0.590107 0.807325 10.9093 354.787)">L3 Bandwidth: 1055.07 GB/sec</text></g><g id="SVG_0_ForegroundLayer"><line x1="375" y1="105" x2="415" y2="105" class="idvcchart_roofline_center_marker"></line><line x1="395" y1="85" x2="395" y2="125" class="idvcchart_roofline_center_marker"></line><use xlink:href="#SVG_0_expanderTemplate" class="idvc_active" x="379.75" y="91.5"></use></g><rect x="0" y="0" width="0" height="0" class="idvcchart_selection"></rect><defs><filter id="SVG_0_TextBackground" x="0" y="0" width="1" height="1"><feFlood flood-color="white"></feFlood><feComposite in="SourceGraphic"></feComposite></filter></defs><defs id="SVG_0_line_arrows"><marker id="SVG_0_loops_matching_arrow" markerWidth="9" markerHeight="9" refX="9" refY="5" orient="auto"><path d="M 1 1 L 1 8 L 8 5 L 1 1" class="idvcroofline_loops_matching_arrow"></path></marker><marker id="SVG_0_ChildArrow" markerWidth="9" markerHeight="9" refX="9" refY="5" orient="auto"><path d="M 1 1 L 1 8 L 8 5 L 1 1" class="roofline_child_arrow"></path></marker><marker id="SVG_0_ParentArrow" markerWidth="9" markerHeight="9" refX="0" refY="5" orient="auto"><path d="M 1 1 L 1 8 L 8 5 L 1 1" class="roofline_parent_arrow"></path></marker></defs><defs id="SVG_0_fill_patterns"><pattern id="SVG_0_loopFill-6-4-cl" patternContentUnits="objectBoundingBox" width="100%" height="100%"><circle cx=".5" cy=".5" r=".5" fill="white"></circle><circle cx=".5" cy=".5" r="0.3333333333333333" fill="green" stroke="black" stroke-width="0.05"></circle></pattern><pattern id="SVG_0_loopFill-8-4-cl" patternContentUnits="objectBoundingBox" width="100%" height="100%"><circle cx=".5" cy=".5" r=".5" fill="white"></circle><circle cx=".5" cy=".5" r="0.25" fill="green" stroke="black" stroke-width="0.05"></circle></pattern><pattern id="SVG_0_loopFill-8-6-cl" patternContentUnits="objectBoundingBox" width="100%" height="100%"><circle cx=".5" cy=".5" r=".5" fill="white"></circle><circle cx=".5" cy=".5" r="0.375" fill="yellow" stroke="black" stroke-width="0.05"></circle></pattern></defs><defs><g id="SVG_0_expanderTemplate"><rect x="0" y="0" width="11" height="11" class="roofline_expander"></rect><line x1="2" y1="5.5" x2="9" y2="5.5" class="roofline_expander_horz_line"></line><line x1="5.5" y1="2" x2="5.5" y2="9" class="roofline_expander_vert_line"></line></g></defs><text x="2" y="2" style="font-size: 90%; writing-mode: tb; dominant-baseline: text-after-edge">GFLOPS</text><text x="561" y="452" style="font-size: 90%; text-anchor: end; dominant-baseline: text-after-edge"><tspan>FLOP/Byte</tspan><tspan style="font-size: 90%;"> (Arithmetic Intensity)</tspan></text>    </svg>  </g>  </svg>