<svg xmlns="http://www.w3.org/2000/svg" xmlns:xlink="http://www.w3.org/1999/xlink" viewBox="0 0 1483 1050">  <style>    svg { font : caption; }      .idvcchart_axis { fill: none; stroke: gray; stroke-width: 1; vector-effect: non-scaling-stroke; shape-rendering: crispEdges; }      .idvcchart_axis_text { fill: #333; font-size: 95%; stroke: none; stroke-width: 1; vector-effect: non-scaling-stroke; }      .idvcchart_roofline_text { fill: gray; font-size: 90%; }      .idvcchart_roofline_text.selected { fill: #000; }      .idvcchart_roofline_text.hidden { fill: none; }      .idvcchart_roofline_explanation { fill: none; }      .idvcchart_roofline_center_marker { stroke: #000; stroke-width: 1 }      .roofline_child_line { stroke: none; fill: none; }      .roofline_parent_line { stroke: none; fill: none; }      .roofline_child_arrow { stroke: none; fill: none; }      .roofline_parent_arrow { stroke: none; fill: none; }      .roofline_loop { stroke: #000; stroke-width: 1; vector-effect: non-scaling-stroke; shape-rendering: geometricPrecision; fill: lightgray; }      .roofline_loop.no_loop_position { stroke: darkgray; fill: #eee; }      .roofline_loop.loop_inactive_result { opacity: 0.4; }      .idvcroofline_line { stroke: #999; stroke-dasharray: 4,4; fill: none; stroke-width: 1; vector-effect: non-scaling-stroke; shape-rendering: crispEdges; }      .idvcroofline_grid_line { stroke: #ddd; fill: none; stroke-width: 1; vector-effect: non-scaling-stroke; shape-rendering: crispEdges; }      .idvcroofline_line.selected { stroke: #000; shape-rendering: auto; stroke-dasharray: none; }      .idvcroofline_line_hotarea { stroke: none; fill: none; }      .roofline_roofs_cross { stroke: none; fill: none; }      .roofline_coord_line { stroke: none; fill: none; stroke-width: 1; vector-effect: non-scaling-stroke; shape-rendering: crispEdges; }      .roofline_coord_line.selected { stroke: gray; stroke-dasharray: none !important; }      .roofline_expander { stroke: none; fill: none; }      .roofline_expander_vert_line { stroke: none; fill: none; }      .roofline_expander_horz_line { stroke: none; fill: none; }      .idvcroofline_roof_crossing { stroke: none; fill: none; }      .idvcroofline_roof_crossing_line { stroke: none; fill: none; }      .idvcroofline_roof_crossing_label { stroke: none; fill: none; }      .idvcroofline_loops_matching_line { stroke: black; stroke-dasharray: 4,4; fill: none; vector-effect: non-scaling-stroke; shape-rendering: crispEdges; }      .idvcroofline_loops_matching_arrow { stroke: #000; fill: black; vector-effect: non-scaling-stroke; shape-rendering: geometricPrecision; }      .idvcroofline_loops_matching_label { font-size: 100%; }      .idvcroofline_total_value_tick_active { stroke: none; fill: none; }      .idvcroofline_total_value_tick { stroke: none; fill: none; }      .stairs_delta_line {stroke-width: 2;vector-effect: non-scaling-stroke;shape-rendering: geometricPrecision;}      .stairs_connection_line {stroke: black;stroke-width: 1;stroke-dasharray: 2,2;vector-effect: non-scaling-stroke;shape-rendering: geometricPrecision;}      .stairs_delta_ends {stroke-width: 3;vector-effect: non-scaling-stroke;shape-rendering: geometricPrecision;}      .idvc_hidden { stroke: none !important; fill: none !important; }  </style>  <g>    <svg id="vert_axis" viewBox="0 0 74 1024" width="74" height="1024">      <line x1="73.9375" y1="0" x2="73.9375" y2="1024" class="idvcchart_axis"></line><line x1="68.4375" y1="922" x2="74.4375" y2="922" class="idvcchart_axis"></line><line x1="68.4375" y1="922" x2="74.4375" y2="922" class="idvcchart_axis_hot"></line><text x="64.4375" y="922" class="idvcchart_axis_text" style="text-anchor: end;dominant-baseline: middle">0.001</text><line x1="68.4375" y1="790" x2="74.4375" y2="790" class="idvcchart_axis"></line><line x1="68.4375" y1="790" x2="74.4375" y2="790" class="idvcchart_axis_hot"></line><text x="64.4375" y="790" class="idvcchart_axis_text" style="text-anchor: end;dominant-baseline: middle">0.01</text><line x1="68.4375" y1="658" x2="74.4375" y2="658" class="idvcchart_axis"></line><line x1="68.4375" y1="658" x2="74.4375" y2="658" class="idvcchart_axis_hot"></line><text x="64.4375" y="658" class="idvcchart_axis_text" style="text-anchor: end;dominant-baseline: middle">0.1</text><line x1="68.4375" y1="525" x2="74.4375" y2="525" class="idvcchart_axis"></line><line x1="68.4375" y1="525" x2="74.4375" y2="525" class="idvcchart_axis_hot"></line><text x="64.4375" y="525" class="idvcchart_axis_text" style="text-anchor: end;dominant-baseline: middle">1</text><line x1="68.4375" y1="393" x2="74.4375" y2="393" class="idvcchart_axis"></line><line x1="68.4375" y1="393" x2="74.4375" y2="393" class="idvcchart_axis_hot"></line><text x="64.4375" y="393" class="idvcchart_axis_text" style="text-anchor: end;dominant-baseline: middle">10</text><line x1="68.4375" y1="261" x2="74.4375" y2="261" class="idvcchart_axis"></line><line x1="68.4375" y1="261" x2="74.4375" y2="261" class="idvcchart_axis_hot"></line><text x="64.4375" y="261" class="idvcchart_axis_text" style="text-anchor: end;dominant-baseline: middle">100</text><line x1="68.4375" y1="129" x2="74.4375" y2="129" class="idvcchart_axis"></line><line x1="68.4375" y1="129" x2="74.4375" y2="129" class="idvcchart_axis_hot"></line><text x="64.4375" y="129" class="idvcchart_axis_text" style="text-anchor: end;dominant-baseline: middle">1000</text><defs><marker id="SVG_1_TotalValue" markerWidth="6" markerHeight="10" refX="1" refY="5" orient="auto" markerUnits="userSpaceOnUse"><path d="M 0 0 L 0 10 L 6 5 L 0 0" class="idvcroofline_total_value_tick"></path></marker><marker id="SVG_1_TotalValueActive" markerWidth="6" markerHeight="10" refX="1" refY="5" orient="auto" markerUnits="userSpaceOnUse"><path d="M 0 0 L 0 10 L 6 5 L 0 0" class="idvcroofline_total_value_tick_active"></path></marker></defs><line x1="68.4375" y1="236" x2="74.4375" y2="236" class="idvcchart_axis idvc_active" style="stroke: transparent; stroke-width:10; marker-start:url(#SVG_1_TotalValue)" ></line><line x1="68.4375" y1="236" x2="74.4375" y2="236" class="idvcchart_axis_hot"></line><text x="64.4375" y="236" class="" style="text-anchor: end;dominant-baseline: middle" fill="none">154.7</text>    </svg>  </g>  <g transform="translate(74, 1024)">    <svg id="horz_axis" viewBox="0 0 1409 26" width="1409" height="26">      <line x1="0" y1="0.5" x2="1408.15625" y2="0.5" class="idvcchart_axis"></line><line x1="52" y1="6" x2="52" y2="0" class="idvcchart_axis"></line><line x1="52" y1="6" x2="52" y2="0" class="idvcchart_axis_hot"></line><text x="52" y="10" class="idvcchart_axis_text" style="text-anchor: middle; dominant-baseline:text-before-edge;"> 1.00e-5 </text><line x1="252" y1="6" x2="252" y2="0" class="idvcchart_axis"></line><line x1="252" y1="6" x2="252" y2="0" class="idvcchart_axis_hot"></line><text x="252" y="10" class="idvcchart_axis_text" style="text-anchor: middle; dominant-baseline:text-before-edge;"> 0.0001 </text><line x1="452" y1="6" x2="452" y2="0" class="idvcchart_axis"></line><line x1="452" y1="6" x2="452" y2="0" class="idvcchart_axis_hot"></line><text x="452" y="10" class="idvcchart_axis_text" style="text-anchor: middle; dominant-baseline:text-before-edge;"> 0.001 </text><line x1="652" y1="6" x2="652" y2="0" class="idvcchart_axis"></line><line x1="652" y1="6" x2="652" y2="0" class="idvcchart_axis_hot"></line><text x="652" y="10" class="idvcchart_axis_text" style="text-anchor: middle; dominant-baseline:text-before-edge;"> 0.01 </text><line x1="852" y1="6" x2="852" y2="0" class="idvcchart_axis"></line><line x1="852" y1="6" x2="852" y2="0" class="idvcchart_axis_hot"></line><text x="852" y="10" class="idvcchart_axis_text" style="text-anchor: middle; dominant-baseline:text-before-edge;"> 0.1 </text><line x1="1052" y1="6" x2="1052" y2="0" class="idvcchart_axis"></line><line x1="1052" y1="6" x2="1052" y2="0" class="idvcchart_axis_hot"></line><text x="1052" y="10" class="idvcchart_axis_text" style="text-anchor: middle; dominant-baseline:text-before-edge;"> 1 </text><line x1="1252" y1="6" x2="1252" y2="0" class="idvcchart_axis"></line><line x1="1252" y1="6" x2="1252" y2="0" class="idvcchart_axis_hot"></line><text x="1252" y="10" class="idvcchart_axis_text" style="text-anchor: middle; dominant-baseline:text-before-edge;"> 10 </text><defs><marker id="SVG_2_TotalValue" markerWidth="6" markerHeight="10" refX="1" refY="5" orient="auto" markerUnits="userSpaceOnUse"><path d="M 0 0 L 0 10 L 6 5 L 0 0" class="idvcroofline_total_value_tick"></path></marker><marker id="SVG_2_TotalValueActive" markerWidth="6" markerHeight="10" refX="1" refY="5" orient="auto" markerUnits="userSpaceOnUse"><path d="M 0 0 L 0 10 L 6 5 L 0 0" class="idvcroofline_total_value_tick_active"></path></marker></defs><line x1="984" y1="6" x2="984" y2="0" class="idvcchart_axis idvc_active" style="stroke: transparent; stroke-width:10; marker-start:url(#SVG_2_TotalValue)" ></line><line x1="984" y1="6" x2="984" y2="0" class="idvcchart_axis_hot"></line><text x="984" y="10" class="" style="text-anchor: middle; dominant-baseline:text-before-edge;" fill="none"> 0.46 </text>    </svg>  </g>  <g transform="translate(74, 0)">    <svg id="roofline_content" viewBox="0 0 1409 1024" width="1409" height="1024">      <g id="SVG_0_BackgroundLayer"><polygon fill="rgb(160, 30, 30)" style="opacity:0.14" points="1291,1024 1291,85 1408,85 1408,1024"></polygon><polygon fill="rgb(200, 40, 40)" style="opacity:0.1" points="628,1024 628,284 929,85 1291,85 1291,1024"></polygon><polygon fill="rgb(240, 50, 50)" style="opacity:0.06" points="0,1024 0,699 628,284 628,1024"></polygon><line class="idvcroofline_total_line" x1="984" y1="1024" x2="984" y2="0"></line><line class="idvcroofline_grid_line" x1="1252" y1="1024" x2="1252" y2="0"></line><line class="idvcroofline_grid_line" x1="1052" y1="1024" x2="1052" y2="0"></line><line class="idvcroofline_grid_line" x1="852" y1="1024" x2="852" y2="0"></line><line class="idvcroofline_grid_line" x1="652" y1="1024" x2="652" y2="0"></line><line class="idvcroofline_grid_line" x1="452" y1="1024" x2="452" y2="0"></line><line class="idvcroofline_grid_line" x1="252" y1="1024" x2="252" y2="0"></line><line class="idvcroofline_grid_line" x1="52" y1="1024" x2="52" y2="0"></line><line class="idvcroofline_total_line" x1="0" y1="236" x2="1408" y2="236"></line><line class="idvcroofline_grid_line" x1="0" y1="922" x2="1408" y2="922"></line><line class="idvcroofline_grid_line" x1="0" y1="790" x2="1408" y2="790"></line><line class="idvcroofline_grid_line" x1="0" y1="658" x2="1408" y2="658"></line><line class="idvcroofline_grid_line" x1="0" y1="525" x2="1408" y2="525"></line><line class="idvcroofline_grid_line" x1="0" y1="393" x2="1408" y2="393"></line><line class="idvcroofline_grid_line" x1="0" y1="261" x2="1408" y2="261"></line><line class="idvcroofline_grid_line" x1="0" y1="129" x2="1408" y2="129"></line><line class="idvcroofline_line_hotarea idvc_active" x1="0" y1="699" x2="929" y2="85"></line><line class="idvcroofline_line_hotarea idvc_active" x1="0" y1="775" x2="1043" y2="85"></line><line class="idvcroofline_line_hotarea idvc_active" x1="0" y1="821" x2="1113" y2="85"></line><line class="idvcroofline_line_hotarea idvc_active" x1="0" y1="939" x2="1291" y2="85"></line><line class="idvcroofline_line_hotarea idvc_active" x1="929" y1="85" x2="1408" y2="85"></line><line class="idvcroofline_line_hotarea idvc_active" x1="869" y1="125" x2="1408" y2="125"></line><line class="idvcroofline_line_hotarea idvc_active" x1="808" y1="165" x2="1408" y2="165"></line><line class="idvcroofline_line_hotarea idvc_active" x1="748" y1="205" x2="1408" y2="205"></line><line class="idvcroofline_line_hotarea idvc_active" x1="628" y1="284" x2="1408" y2="284"></line><text style="text-anchor: middle;opacity:0.6" fill="rgb(160, 0, 0)" x="318" y="985"></text><text style="text-anchor: middle;opacity:0.6" fill="rgb(160, 0, 0)" x="318" y="1006"></text><text style="text-anchor: middle;opacity:0.6" fill="rgb(160, 0, 0)" x="963.5" y="985"></text><text style="text-anchor: middle;opacity:0.6" fill="rgb(160, 0, 0)" x="963.5" y="1006"></text><text style="text-anchor: middle;opacity:0.6" fill="rgb(160, 0, 0)" x="1353.5" y="985"></text><text style="text-anchor: middle;opacity:0.6" fill="rgb(160, 0, 0)" x="1353.5" y="1006"></text></g><g id="SVG_0_LoopsLayer"><circle class="roofline_loop idvc_active" cx="964" cy="242" r="6" style="fill:yellow !important" ></circle><circle class="roofline_loop idvc_active" cx="741" cy="501" r="4" style="fill:green !important" ></circle><circle class="roofline_loop idvc_active" cx="907" cy="484" r="4" style="fill:green !important" ></circle><circle class="roofline_loop idvc_active" cx="908" cy="587" r="4" style="fill:green !important" ></circle><circle class="roofline_loop idvc_active" cx="117" cy="882" r="4" style="fill:green !important" ></circle><circle class="roofline_loop idvc_active" cx="628" cy="731" r="4" style="fill:green !important" ></circle><circle class="roofline_loop idvc_active idvcroofline_point_current idvcroofline_point_selected" cx="987" cy="219" r="8" style="fill:red !important" ></circle></g><g id="SVG_0_RoofsLayer"><line class="idvcroofline_line L1Bandwidth" x1="0" y1="699" x2="929" y2="85" style=""></line><line class="idvcroofline_line selected" x1="0" y1="699" x2="929" y2="85" style=""></line><line class="idvcroofline_line L2Bandwidth" x1="0" y1="775" x2="1043" y2="85" style=""></line><line class="idvcroofline_line L3Bandwidth" x1="0" y1="821" x2="1113" y2="85" style=""></line><line class="idvcroofline_line SPVectorFMAPeak selected" x1="929" y1="85" x2="1408" y2="85"></line><line class="idvcroofline_line DPVectorFMAPeak" x1="869" y1="125" x2="1408" y2="125"></line><line class="idvcroofline_line SPVectorAddPeak" x1="808" y1="165" x2="1408" y2="165"></line><line class="idvcroofline_line ScalarAddPeak" x1="628" y1="284" x2="1408" y2="284"></line><rect x="625" y="281" width="6" height="6" class="roofline_roofs_cross idvc_active"></rect><line x1="628" y1="287" x2="628" y2="1024" class="roofline_coord_line"></line><rect x="739" y="281" width="6" height="6" class="roofline_roofs_cross idvc_active"></rect><line x1="742" y1="287" x2="742" y2="1024" class="roofline_coord_line"></line><rect x="809" y="281" width="6" height="6" class="roofline_roofs_cross idvc_active"></rect><line x1="812" y1="287" x2="812" y2="1024" class="roofline_coord_line"></line><rect x="987" y="281" width="6" height="6" class="roofline_roofs_cross idvc_active"></rect><line x1="990" y1="287" x2="990" y2="1024" class="roofline_coord_line"></line><rect x="745" y="202" width="6" height="6" class="roofline_roofs_cross idvc_active"></rect><line x1="748" y1="208" x2="748" y2="1024" class="roofline_coord_line"></line><rect x="860" y="202" width="6" height="6" class="roofline_roofs_cross idvc_active"></rect><line x1="863" y1="208" x2="863" y2="1024" class="roofline_coord_line"></line><rect x="930" y="202" width="6" height="6" class="roofline_roofs_cross idvc_active"></rect><line x1="933" y1="208" x2="933" y2="1024" class="roofline_coord_line"></line><rect x="1107" y="202" width="6" height="6" class="roofline_roofs_cross idvc_active"></rect><line x1="1110" y1="208" x2="1110" y2="1024" class="roofline_coord_line"></line><rect x="805" y="162" width="6" height="6" class="roofline_roofs_cross idvc_active"></rect><line x1="808" y1="168" x2="808" y2="1024" class="roofline_coord_line"></line><rect x="920" y="162" width="6" height="6" class="roofline_roofs_cross idvc_active"></rect><line x1="923" y1="168" x2="923" y2="1024" class="roofline_coord_line"></line><rect x="990" y="162" width="6" height="6" class="roofline_roofs_cross idvc_active"></rect><line x1="993" y1="168" x2="993" y2="1024" class="roofline_coord_line"></line><rect x="1167" y="162" width="6" height="6" class="roofline_roofs_cross idvc_active"></rect><line x1="1170" y1="168" x2="1170" y2="1024" class="roofline_coord_line"></line><rect x="866" y="122" width="6" height="6" class="roofline_roofs_cross idvc_active"></rect><line x1="869" y1="128" x2="869" y2="1024" class="roofline_coord_line"></line><rect x="980" y="122" width="6" height="6" class="roofline_roofs_cross idvc_active"></rect><line x1="983" y1="128" x2="983" y2="1024" class="roofline_coord_line"></line><rect x="1050" y="122" width="6" height="6" class="roofline_roofs_cross idvc_active"></rect><line x1="1053" y1="128" x2="1053" y2="1024" class="roofline_coord_line"></line><rect x="1228" y="122" width="6" height="6" class="roofline_roofs_cross idvc_active"></rect><line x1="1231" y1="128" x2="1231" y2="1024" class="roofline_coord_line"></line><rect x="926" y="82" width="6" height="6" class="roofline_roofs_cross idvc_active"></rect><line x1="929" y1="88" x2="929" y2="1024" class="roofline_coord_line"></line><rect x="1040" y="82" width="6" height="6" class="roofline_roofs_cross idvc_active"></rect><line x1="1043" y1="88" x2="1043" y2="1024" class="roofline_coord_line"></line><rect x="1110" y="82" width="6" height="6" class="roofline_roofs_cross idvc_active"></rect><line x1="1113" y1="88" x2="1113" y2="1024" class="roofline_coord_line"></line><rect x="1288" y="82" width="6" height="6" class="roofline_roofs_cross idvc_active"></rect><line x1="1291" y1="88" x2="1291" y2="1024" class="roofline_coord_line"></line><line class="idvcroofline_line DPVectorAddPeak" x1="748" y1="205" x2="1408" y2="205"></line><line class="idvcroofline_line DRAMBandwidth" x1="0" y1="939" x2="1291" y2="85" style=""></line><line class="idvcroofline_line selected" x1="0" y1="939" x2="1291" y2="85" style=""></line></g><g id="SVG_0_RoofsTextLayer"><text class="idvcchart_roofline_text selected" x="0" y="0" style="dominant-baseline:text-after-edge;" transform="matrix(0.834254 -0.55138 0.55138 0.834254 10.5165 690.851)">L1 Bandwidth: 8818.2 GB/sec</text><text class="idvcchart_roofline_text" x="0" y="0" style="dominant-baseline:text-after-edge;" transform="matrix(0.834013 -0.551744 0.551744 0.834013 10.4962 766.857)">L2 Bandwidth: 2362.44 GB/sec</text><text class="idvcchart_roofline_text" x="0" y="0" style="dominant-baseline:text-after-edge;" transform="matrix(0.83412 -0.551583 0.551583 0.83412 10.5066 812.853)">L3 Bandwidth: 1055.07 GB/sec</text><text class="idvcchart_roofline_text selected" x="0" y="0" style="text-anchor: end; dominant-baseline:text-after-edge;" transform="matrix(1 0 0 1 1404 84)">SP Vector FMA Peak: 2135.75 GFLOPS</text><text class="idvcchart_roofline_text" x="0" y="0" style="text-anchor: end; dominant-baseline:text-after-edge;" transform="matrix(1 0 0 1 1404 124)">DP Vector FMA Peak: 1068.24 GFLOPS</text><text class="idvcchart_roofline_text" x="0" y="0" style="text-anchor: end; dominant-baseline:text-after-edge;" transform="matrix(1 0 0 1 1404 164)">SP Vector Add Peak: 533.22 GFLOPS</text><text class="idvcchart_roofline_text" x="0" y="0" style="text-anchor: end; dominant-baseline:text-after-edge;" transform="matrix(1 0 0 1 1404 283)">Scalar Add Peak: 66.81 GFLOPS</text><text class="idvcchart_roofline_text" x="0" y="0" style="text-anchor: end; dominant-baseline:text-after-edge;" transform="matrix(1 0 0 1 1404 204)">DP Vector Add Peak: 267 GFLOPS</text><text class="idvcchart_roofline_text selected" x="0" y="0" style="dominant-baseline:text-after-edge;" transform="matrix(0.834033 -0.551715 0.551715 0.834033 10.4782 930.87)">DRAM Bandwidth: 136.49 GB/sec</text></g><g id="SVG_0_ForegroundLayer"><line x1="964" y1="236" x2="1004" y2="236" class="idvcchart_roofline_center_marker"></line><line x1="984" y1="216" x2="984" y2="256" class="idvcchart_roofline_center_marker"></line><use xlink:href="#SVG_0_expanderTemplate" class="idvc_active" x="970.75" y="213.5"></use><text class="idvcroofline_roof_crossing_label" x="-100" y="-100" filter="url(#SVG_0_TextBackground)" style="text-anchor:end; dominant-baseline: middle;"><tspan class="idvcroofline_roof_crossing_label_value">2135.75</tspan><tspan class="idvcroofline_roof_crossing_label_measure"> GFLOPS </tspan><tspan class="idvcroofline_roof_crossing_label_gain_x">(</tspan><tspan class="idvcroofline_roof_crossing_label_gain">10.2</tspan><tspan class="idvcroofline_roof_crossing_label_gain_x">x)</tspan></text><text class="idvcroofline_roof_crossing_label" x="-100" y="-100" filter="url(#SVG_0_TextBackground)" style="text-anchor:end; dominant-baseline: middle;"><tspan class="idvcroofline_roof_crossing_label_value">267</tspan><tspan class="idvcroofline_roof_crossing_label_measure"> GFLOPS </tspan><tspan class="idvcroofline_roof_crossing_label_gain_x">(</tspan><tspan class="idvcroofline_roof_crossing_label_gain">1.3</tspan><tspan class="idvcroofline_roof_crossing_label_gain_x">x)</tspan></text><use xlink:href="#SVG_0_crossingTemplate" x="-100" y="-100"></use><use xlink:href="#SVG_0_crossingTemplate" x="-100" y="-100"></use><line x1="-100" y1="0" x2="-100" y2="0" class="idvcroofline_roof_crossing_line"></line></g><rect x="0" y="0" width="0" height="0" class="idvcchart_selection"></rect><defs><filter id="SVG_0_TextBackground" x="0" y="0" width="1" height="1"><feFlood flood-color="white"></feFlood><feComposite in="SourceGraphic"></feComposite></filter></defs><defs id="SVG_0_line_arrows"><marker id="SVG_0_loops_matching_arrow" markerWidth="9" markerHeight="9" refX="9" refY="5" orient="auto"><path d="M 1 1 L 1 8 L 8 5 L 1 1" class="idvcroofline_loops_matching_arrow"></path></marker><marker id="SVG_0_ChildArrow" markerWidth="9" markerHeight="9" refX="9" refY="5" orient="auto"><path d="M 1 1 L 1 8 L 8 5 L 1 1" class="roofline_child_arrow"></path></marker><marker id="SVG_0_ParentArrow" markerWidth="9" markerHeight="9" refX="0" refY="5" orient="auto"><path d="M 1 1 L 1 8 L 8 5 L 1 1" class="roofline_parent_arrow"></path></marker></defs><defs id="SVG_0_fill_patterns"><pattern id="SVG_0_loopFill-6-4-cl" patternContentUnits="objectBoundingBox" width="100%" height="100%"><circle cx=".5" cy=".5" r=".5" fill="white"></circle><circle cx=".5" cy=".5" r="0.3333333333333333" fill="green" stroke="black" stroke-width="0.05"></circle></pattern><pattern id="SVG_0_loopFill-8-4-cl" patternContentUnits="objectBoundingBox" width="100%" height="100%"><circle cx=".5" cy=".5" r=".5" fill="white"></circle><circle cx=".5" cy=".5" r="0.25" fill="green" stroke="black" stroke-width="0.05"></circle></pattern><pattern id="SVG_0_loopFill-8-6-cl" patternContentUnits="objectBoundingBox" width="100%" height="100%"><circle cx=".5" cy=".5" r=".5" fill="white"></circle><circle cx=".5" cy=".5" r="0.375" fill="yellow" stroke="black" stroke-width="0.05"></circle></pattern></defs><defs><g id="SVG_0_expanderTemplate"><rect x="0" y="0" width="11" height="11" class="roofline_expander"></rect><line x1="2" y1="5.5" x2="9" y2="5.5" class="roofline_expander_horz_line"></line><line x1="5.5" y1="2" x2="5.5" y2="9" class="roofline_expander_vert_line"></line></g></defs><defs><line id="SVG_0_crossingTemplate" x1="-4" y1="-4" x2="4" y2="4" class="idvcroofline_roof_crossing"></line></defs><text x="2" y="2" style="font-size: 90%; writing-mode: tb; dominant-baseline: text-after-edge">GFLOPS</text><text x="1405" y="1022" style="font-size: 90%; text-anchor: end; dominant-baseline: text-after-edge"><tspan>FLOP/Byte</tspan><tspan style="font-size: 90%;"> (Arithmetic Intensity)</tspan></text>    </svg>  </g>  </svg>