<svg xmlns="http://www.w3.org/2000/svg" xmlns:xlink="http://www.w3.org/1999/xlink" viewBox="0 0 798 600">  <style>    svg { font : caption; }      .idvcchart_axis { fill: none; stroke: gray; stroke-width: 1; vector-effect: non-scaling-stroke; shape-rendering: crispEdges; }      .idvcchart_axis_text { fill: #333; font-size: 95%; stroke: none; stroke-width: 1; vector-effect: non-scaling-stroke; }      .idvcchart_roofline_text { fill: gray; font-size: 90%; }      .idvcchart_roofline_text.selected { fill: #000; }      .idvcchart_roofline_text.hidden { fill: none; }      .idvcchart_roofline_explanation { fill: none; }      .idvcchart_roofline_center_marker { stroke: #000; stroke-width: 1 }      .roofline_child_line { stroke: none; fill: none; }      .roofline_parent_line { stroke: none; fill: none; }      .roofline_child_arrow { stroke: none; fill: none; }      .roofline_parent_arrow { stroke: none; fill: none; }      .roofline_loop { stroke: #000; stroke-width: 1; vector-effect: non-scaling-stroke; shape-rendering: geometricPrecision; fill: lightgray; }      .roofline_loop.no_loop_position { stroke: darkgray; fill: #eee; }      .roofline_loop.loop_inactive_result { opacity: 0.4; }      .idvcroofline_line { stroke: #999; stroke-dasharray: 4,4; fill: none; stroke-width: 1; vector-effect: non-scaling-stroke; shape-rendering: crispEdges; }      .idvcroofline_grid_line { stroke: #ddd; fill: none; stroke-width: 1; vector-effect: non-scaling-stroke; shape-rendering: crispEdges; }      .idvcroofline_line.selected { stroke: #000; shape-rendering: auto; stroke-dasharray: none; }      .idvcroofline_line_hotarea { stroke: none; fill: none; }      .roofline_roofs_cross { stroke: none; fill: none; }      .roofline_coord_line { stroke: none; fill: none; stroke-width: 1; vector-effect: non-scaling-stroke; shape-rendering: crispEdges; }      .roofline_coord_line.selected { stroke: gray; stroke-dasharray: none !important; }      .roofline_expander { stroke: none; fill: none; }      .roofline_expander_vert_line { stroke: none; fill: none; }      .roofline_expander_horz_line { stroke: none; fill: none; }      .idvcroofline_roof_crossing { stroke: none; fill: none; }      .idvcroofline_roof_crossing_line { stroke: none; fill: none; }      .idvcroofline_roof_crossing_label { stroke: none; fill: none; }      .idvcroofline_loops_matching_line { stroke: black; stroke-dasharray: 4,4; fill: none; vector-effect: non-scaling-stroke; shape-rendering: crispEdges; }      .idvcroofline_loops_matching_arrow { stroke: #000; fill: black; vector-effect: non-scaling-stroke; shape-rendering: geometricPrecision; }      .idvcroofline_loops_matching_label { font-size: 100%; }      .idvcroofline_total_value_tick_active { stroke: none; fill: none; }      .idvcroofline_total_value_tick { stroke: none; fill: none; }      .stairs_delta_line {stroke-width: 2;vector-effect: non-scaling-stroke;shape-rendering: geometricPrecision;}      .stairs_connection_line {stroke: black;stroke-width: 1;stroke-dasharray: 2,2;vector-effect: non-scaling-stroke;shape-rendering: geometricPrecision;}      .stairs_delta_ends {stroke-width: 3;vector-effect: non-scaling-stroke;shape-rendering: geometricPrecision;}      .idvc_hidden { stroke: none !important; fill: none !important; }  </style>  <g>    <svg id="vert_axis" viewBox="0 0 74 574" width="74" height="574">      <line x1="73.9375" y1="0" x2="73.9375" y2="574" class="idvcchart_axis"></line><line x1="68.4375" y1="517" x2="74.4375" y2="517" class="idvcchart_axis"></line><line x1="68.4375" y1="517" x2="74.4375" y2="517" class="idvcchart_axis_hot"></line><text x="64.4375" y="517" class="idvcchart_axis_text" style="text-anchor: end;dominant-baseline: middle">0.001</text><line x1="68.4375" y1="443" x2="74.4375" y2="443" class="idvcchart_axis"></line><line x1="68.4375" y1="443" x2="74.4375" y2="443" class="idvcchart_axis_hot"></line><text x="64.4375" y="443" class="idvcchart_axis_text" style="text-anchor: end;dominant-baseline: middle">0.01</text><line x1="68.4375" y1="369" x2="74.4375" y2="369" class="idvcchart_axis"></line><line x1="68.4375" y1="369" x2="74.4375" y2="369" class="idvcchart_axis_hot"></line><text x="64.4375" y="369" class="idvcchart_axis_text" style="text-anchor: end;dominant-baseline: middle">0.1</text><line x1="68.4375" y1="295" x2="74.4375" y2="295" class="idvcchart_axis"></line><line x1="68.4375" y1="295" x2="74.4375" y2="295" class="idvcchart_axis_hot"></line><text x="64.4375" y="295" class="idvcchart_axis_text" style="text-anchor: end;dominant-baseline: middle">1</text><line x1="68.4375" y1="220" x2="74.4375" y2="220" class="idvcchart_axis"></line><line x1="68.4375" y1="220" x2="74.4375" y2="220" class="idvcchart_axis_hot"></line><text x="64.4375" y="220" class="idvcchart_axis_text" style="text-anchor: end;dominant-baseline: middle">10</text><line x1="68.4375" y1="146" x2="74.4375" y2="146" class="idvcchart_axis"></line><line x1="68.4375" y1="146" x2="74.4375" y2="146" class="idvcchart_axis_hot"></line><text x="64.4375" y="146" class="idvcchart_axis_text" style="text-anchor: end;dominant-baseline: middle">100</text><line x1="68.4375" y1="72" x2="74.4375" y2="72" class="idvcchart_axis"></line><line x1="68.4375" y1="72" x2="74.4375" y2="72" class="idvcchart_axis_hot"></line><text x="64.4375" y="72" class="idvcchart_axis_text" style="text-anchor: end;dominant-baseline: middle">1000</text><defs><marker id="SVG_1_TotalValue" markerWidth="6" markerHeight="10" refX="1" refY="5" orient="auto" markerUnits="userSpaceOnUse"><path d="M 0 0 L 0 10 L 6 5 L 0 0" class="idvcroofline_total_value_tick"></path></marker><marker id="SVG_1_TotalValueActive" markerWidth="6" markerHeight="10" refX="1" refY="5" orient="auto" markerUnits="userSpaceOnUse"><path d="M 0 0 L 0 10 L 6 5 L 0 0" class="idvcroofline_total_value_tick_active"></path></marker></defs><line x1="68.4375" y1="132" x2="74.4375" y2="132" class="idvcchart_axis idvc_active" style="stroke: transparent; stroke-width:10; marker-start:url(#SVG_1_TotalValue)" ></line><line x1="68.4375" y1="132" x2="74.4375" y2="132" class="idvcchart_axis_hot"></line><text x="64.4375" y="132" class="" style="text-anchor: end;dominant-baseline: middle" fill="none">154.7</text>    </svg>  </g>  <g transform="translate(74, 574)">    <svg id="horz_axis" viewBox="0 0 724 26" width="724" height="26">      <line x1="0" y1="0.5" x2="723.15625" y2="0.5" class="idvcchart_axis"></line><line x1="27" y1="6" x2="27" y2="0" class="idvcchart_axis"></line><line x1="27" y1="6" x2="27" y2="0" class="idvcchart_axis_hot"></line><text x="27" y="10" class="idvcchart_axis_text" style="text-anchor: middle; dominant-baseline:text-before-edge;"> 1.00e-5 </text><line x1="130" y1="6" x2="130" y2="0" class="idvcchart_axis"></line><line x1="130" y1="6" x2="130" y2="0" class="idvcchart_axis_hot"></line><text x="130" y="10" class="idvcchart_axis_text" style="text-anchor: middle; dominant-baseline:text-before-edge;"> 0.0001 </text><line x1="232" y1="6" x2="232" y2="0" class="idvcchart_axis"></line><line x1="232" y1="6" x2="232" y2="0" class="idvcchart_axis_hot"></line><text x="232" y="10" class="idvcchart_axis_text" style="text-anchor: middle; dominant-baseline:text-before-edge;"> 0.001 </text><line x1="335" y1="6" x2="335" y2="0" class="idvcchart_axis"></line><line x1="335" y1="6" x2="335" y2="0" class="idvcchart_axis_hot"></line><text x="335" y="10" class="idvcchart_axis_text" style="text-anchor: middle; dominant-baseline:text-before-edge;"> 0.01 </text><line x1="438" y1="6" x2="438" y2="0" class="idvcchart_axis"></line><line x1="438" y1="6" x2="438" y2="0" class="idvcchart_axis_hot"></line><text x="438" y="10" class="idvcchart_axis_text" style="text-anchor: middle; dominant-baseline:text-before-edge;"> 0.1 </text><line x1="540" y1="6" x2="540" y2="0" class="idvcchart_axis"></line><line x1="540" y1="6" x2="540" y2="0" class="idvcchart_axis_hot"></line><text x="540" y="10" class="idvcchart_axis_text" style="text-anchor: middle; dominant-baseline:text-before-edge;"> 1 </text><line x1="643" y1="6" x2="643" y2="0" class="idvcchart_axis"></line><line x1="643" y1="6" x2="643" y2="0" class="idvcchart_axis_hot"></line><text x="643" y="10" class="idvcchart_axis_text" style="text-anchor: middle; dominant-baseline:text-before-edge;"> 10 </text><defs><marker id="SVG_2_TotalValue" markerWidth="6" markerHeight="10" refX="1" refY="5" orient="auto" markerUnits="userSpaceOnUse"><path d="M 0 0 L 0 10 L 6 5 L 0 0" class="idvcroofline_total_value_tick"></path></marker><marker id="SVG_2_TotalValueActive" markerWidth="6" markerHeight="10" refX="1" refY="5" orient="auto" markerUnits="userSpaceOnUse"><path d="M 0 0 L 0 10 L 6 5 L 0 0" class="idvcroofline_total_value_tick_active"></path></marker></defs><line x1="506" y1="6" x2="506" y2="0" class="idvcchart_axis idvc_active" style="stroke: transparent; stroke-width:10; marker-start:url(#SVG_2_TotalValue)" ></line><line x1="506" y1="6" x2="506" y2="0" class="idvcchart_axis_hot"></line><text x="506" y="10" class="" style="text-anchor: middle; dominant-baseline:text-before-edge;" fill="none"> 0.46 </text>    </svg>  </g>  <g transform="translate(74, 0)">    <svg id="roofline_content" viewBox="0 0 724 574" width="724" height="574">      <g id="SVG_0_BackgroundLayer"><polygon fill="rgb(160, 30, 30)" style="opacity:0.14" points="663,574 663,48 723,48 723,574"></polygon><polygon fill="rgb(200, 40, 40)" style="opacity:0.1" points="323,574 323,159 477,48 663,48 663,574"></polygon><polygon fill="rgb(240, 50, 50)" style="opacity:0.06" points="0,574 0,392 323,159 323,574"></polygon><line class="idvcroofline_grid_line" x1="643" y1="574" x2="643" y2="0"></line><line class="idvcroofline_grid_line" x1="540" y1="574" x2="540" y2="0"></line><line class="idvcroofline_total_line" x1="506" y1="574" x2="506" y2="0"></line><line class="idvcroofline_grid_line" x1="438" y1="574" x2="438" y2="0"></line><line class="idvcroofline_grid_line" x1="335" y1="574" x2="335" y2="0"></line><line class="idvcroofline_grid_line" x1="232" y1="574" x2="232" y2="0"></line><line class="idvcroofline_grid_line" x1="130" y1="574" x2="130" y2="0"></line><line class="idvcroofline_grid_line" x1="27" y1="574" x2="27" y2="0"></line><line class="idvcroofline_grid_line" x1="0" y1="517" x2="723" y2="517"></line><line class="idvcroofline_grid_line" x1="0" y1="443" x2="723" y2="443"></line><line class="idvcroofline_grid_line" x1="0" y1="369" x2="723" y2="369"></line><line class="idvcroofline_grid_line" x1="0" y1="295" x2="723" y2="295"></line><line class="idvcroofline_grid_line" x1="0" y1="220" x2="723" y2="220"></line><line class="idvcroofline_grid_line" x1="0" y1="146" x2="723" y2="146"></line><line class="idvcroofline_total_line" x1="0" y1="132" x2="723" y2="132"></line><line class="idvcroofline_grid_line" x1="0" y1="72" x2="723" y2="72"></line><line class="idvcroofline_line_hotarea idvc_active" x1="0" y1="392" x2="477" y2="48"></line><line class="idvcroofline_line_hotarea idvc_active" x1="0" y1="434" x2="536" y2="48"></line><line class="idvcroofline_line_hotarea idvc_active" x1="0" y1="460" x2="572" y2="48"></line><line class="idvcroofline_line_hotarea idvc_active" x1="0" y1="526" x2="663" y2="48"></line><line class="idvcroofline_line_hotarea idvc_active" x1="477" y1="48" x2="723" y2="48"></line><line class="idvcroofline_line_hotarea idvc_active" x1="446" y1="70" x2="723" y2="70"></line><line class="idvcroofline_line_hotarea idvc_active" x1="415" y1="92" x2="723" y2="92"></line><line class="idvcroofline_line_hotarea idvc_active" x1="384" y1="115" x2="723" y2="115"></line><line class="idvcroofline_line_hotarea idvc_active" x1="323" y1="159" x2="723" y2="159"></line><text style="text-anchor: middle;opacity:0.6" fill="rgb(160, 0, 0)" x="165.5" y="535"></text><text style="text-anchor: middle;opacity:0.6" fill="rgb(160, 0, 0)" x="165.5" y="556"></text><text style="text-anchor: middle;opacity:0.6" fill="rgb(160, 0, 0)" x="497" y="535"></text><text style="text-anchor: middle;opacity:0.6" fill="rgb(160, 0, 0)" x="497" y="556"></text><text style="text-anchor: middle;opacity:0.6" fill="rgb(160, 0, 0)" x="697" y="535"></text><text style="text-anchor: middle;opacity:0.6" fill="rgb(160, 0, 0)" x="697" y="556"></text></g><g id="SVG_0_LoopsLayer"><circle class="roofline_loop idvc_active" cx="495" cy="136" r="6" style="fill:yellow !important" ></circle><circle class="roofline_loop idvc_active" cx="380" cy="281" r="4" style="fill:green !important" ></circle><circle class="roofline_loop idvc_active" cx="466" cy="271" r="4" style="fill:green !important" ></circle><circle class="roofline_loop idvc_active" cx="466" cy="329" r="4" style="fill:green !important" ></circle><circle class="roofline_loop idvc_active" cx="60" cy="494" r="4" style="fill:green !important" ></circle><circle class="roofline_loop idvc_active" cx="323" cy="410" r="4" style="fill:green !important" ></circle><circle class="roofline_loop idvc_active idvcroofline_point_current idvcroofline_point_selected" cx="507" cy="123" r="8" style="fill:red !important" ></circle></g><g id="SVG_0_RoofsLayer"><line class="idvcroofline_line L1Bandwidth" x1="0" y1="392" x2="477" y2="48" style=""></line><line class="idvcroofline_line selected" x1="0" y1="392" x2="477" y2="48" style=""></line><line class="idvcroofline_line L2Bandwidth" x1="0" y1="434" x2="536" y2="48" style=""></line><line class="idvcroofline_line L3Bandwidth" x1="0" y1="460" x2="572" y2="48" style=""></line><line class="idvcroofline_line DRAMBandwidth" x1="0" y1="526" x2="663" y2="48" style=""></line><line class="idvcroofline_line selected" x1="0" y1="526" x2="663" y2="48" style=""></line><line class="idvcroofline_line SPVectorFMAPeak selected" x1="477" y1="48" x2="723" y2="48"></line><line class="idvcroofline_line DPVectorFMAPeak" x1="446" y1="70" x2="723" y2="70"></line><line class="idvcroofline_line SPVectorAddPeak" x1="415" y1="92" x2="723" y2="92"></line><line class="idvcroofline_line DPVectorAddPeak" x1="384" y1="115" x2="723" y2="115"></line><line class="idvcroofline_line ScalarAddPeak" x1="323" y1="159" x2="723" y2="159"></line><rect x="320" y="156" width="6" height="6" class="roofline_roofs_cross idvc_active"></rect><line x1="323" y1="162" x2="323" y2="574" class="roofline_coord_line"></line><rect x="378" y="156" width="6" height="6" class="roofline_roofs_cross idvc_active"></rect><line x1="381" y1="162" x2="381" y2="574" class="roofline_coord_line"></line><rect x="414" y="156" width="6" height="6" class="roofline_roofs_cross idvc_active"></rect><line x1="417" y1="162" x2="417" y2="574" class="roofline_coord_line"></line><rect x="505" y="156" width="6" height="6" class="roofline_roofs_cross idvc_active"></rect><line x1="508" y1="162" x2="508" y2="574" class="roofline_coord_line"></line><rect x="381" y="112" width="6" height="6" class="roofline_roofs_cross idvc_active"></rect><line x1="384" y1="118" x2="384" y2="574" class="roofline_coord_line"></line><rect x="440" y="112" width="6" height="6" class="roofline_roofs_cross idvc_active"></rect><line x1="443" y1="118" x2="443" y2="574" class="roofline_coord_line"></line><rect x="476" y="112" width="6" height="6" class="roofline_roofs_cross idvc_active"></rect><line x1="479" y1="118" x2="479" y2="574" class="roofline_coord_line"></line><rect x="567" y="112" width="6" height="6" class="roofline_roofs_cross idvc_active"></rect><line x1="570" y1="118" x2="570" y2="574" class="roofline_coord_line"></line><rect x="412" y="89" width="6" height="6" class="roofline_roofs_cross idvc_active"></rect><line x1="415" y1="95" x2="415" y2="574" class="roofline_coord_line"></line><rect x="471" y="89" width="6" height="6" class="roofline_roofs_cross idvc_active"></rect><line x1="474" y1="95" x2="474" y2="574" class="roofline_coord_line"></line><rect x="507" y="89" width="6" height="6" class="roofline_roofs_cross idvc_active"></rect><line x1="510" y1="95" x2="510" y2="574" class="roofline_coord_line"></line><rect x="598" y="89" width="6" height="6" class="roofline_roofs_cross idvc_active"></rect><line x1="601" y1="95" x2="601" y2="574" class="roofline_coord_line"></line><rect x="443" y="67" width="6" height="6" class="roofline_roofs_cross idvc_active"></rect><line x1="446" y1="73" x2="446" y2="574" class="roofline_coord_line"></line><rect x="502" y="67" width="6" height="6" class="roofline_roofs_cross idvc_active"></rect><line x1="505" y1="73" x2="505" y2="574" class="roofline_coord_line"></line><rect x="538" y="67" width="6" height="6" class="roofline_roofs_cross idvc_active"></rect><line x1="541" y1="73" x2="541" y2="574" class="roofline_coord_line"></line><rect x="629" y="67" width="6" height="6" class="roofline_roofs_cross idvc_active"></rect><line x1="632" y1="73" x2="632" y2="574" class="roofline_coord_line"></line><rect x="474" y="45" width="6" height="6" class="roofline_roofs_cross idvc_active"></rect><line x1="477" y1="51" x2="477" y2="574" class="roofline_coord_line"></line><rect x="533" y="45" width="6" height="6" class="roofline_roofs_cross idvc_active"></rect><line x1="536" y1="51" x2="536" y2="574" class="roofline_coord_line"></line><rect x="569" y="45" width="6" height="6" class="roofline_roofs_cross idvc_active"></rect><line x1="572" y1="51" x2="572" y2="574" class="roofline_coord_line"></line><rect x="660" y="45" width="6" height="6" class="roofline_roofs_cross idvc_active"></rect><line x1="663" y1="51" x2="663" y2="574" class="roofline_coord_line"></line></g><g id="SVG_0_RoofsTextLayer"><text class="idvcchart_roofline_text selected" x="0" y="0" style="dominant-baseline:text-after-edge;" transform="matrix(0.811083 -0.584932 0.584932 0.811083 10.8603 382.935)">L1 Bandwidth: 8818.2 GB/sec</text><text class="idvcchart_roofline_text" x="0" y="0" style="dominant-baseline:text-after-edge;" transform="matrix(0.811477 -0.584384 0.584384 0.811477 10.9024 424.916)">L2 Bandwidth: 2362.44 GB/sec</text><text class="idvcchart_roofline_text" x="0" y="0" style="dominant-baseline:text-after-edge;" transform="matrix(0.811427 -0.584454 0.584454 0.811427 10.9099 450.909)">L3 Bandwidth: 1055.07 GB/sec</text><text class="idvcchart_roofline_text selected" x="0" y="0" style="dominant-baseline:text-after-edge;" transform="matrix(0.811163 -0.58482 0.58482 0.811163 10.9189 516.895)">DRAM Bandwidth: 136.49 GB/sec</text><text class="idvcchart_roofline_text selected" x="0" y="0" style="text-anchor: end; dominant-baseline:text-after-edge;" transform="matrix(1 0 0 1 719 47)">SP Vector FMA Peak: 2135.75 GFLOPS</text><text class="idvcchart_roofline_text" x="0" y="0" style="text-anchor: end; dominant-baseline:text-after-edge;" transform="matrix(1 0 0 1 719 69)">DP Vector FMA Peak: 1068.24 GFLOPS</text><text class="idvcchart_roofline_text" x="0" y="0" style="text-anchor: end; dominant-baseline:text-after-edge;" transform="matrix(1 0 0 1 719 91)">SP Vector Add Peak: 533.22 GFLOPS</text><text class="idvcchart_roofline_text" x="0" y="0" style="text-anchor: end; dominant-baseline:text-after-edge;" transform="matrix(1 0 0 1 719 114)">DP Vector Add Peak: 267 GFLOPS</text><text class="idvcchart_roofline_text" x="0" y="0" style="text-anchor: end; dominant-baseline:text-after-edge;" transform="matrix(1 0 0 1 719 158)">Scalar Add Peak: 66.81 GFLOPS</text></g><g id="SVG_0_ForegroundLayer"><line x1="486" y1="132" x2="526" y2="132" class="idvcchart_roofline_center_marker"></line><line x1="506" y1="112" x2="506" y2="152" class="idvcchart_roofline_center_marker"></line><use xlink:href="#SVG_0_expanderTemplate" class="idvc_active" x="490.75" y="117.5"></use></g><rect x="0" y="0" width="0" height="0" class="idvcchart_selection"></rect><defs><filter id="SVG_0_TextBackground" x="0" y="0" width="1" height="1"><feFlood flood-color="white"></feFlood><feComposite in="SourceGraphic"></feComposite></filter></defs><defs id="SVG_0_line_arrows"><marker id="SVG_0_loops_matching_arrow" markerWidth="9" markerHeight="9" refX="9" refY="5" orient="auto"><path d="M 1 1 L 1 8 L 8 5 L 1 1" class="idvcroofline_loops_matching_arrow"></path></marker><marker id="SVG_0_ChildArrow" markerWidth="9" markerHeight="9" refX="9" refY="5" orient="auto"><path d="M 1 1 L 1 8 L 8 5 L 1 1" class="roofline_child_arrow"></path></marker><marker id="SVG_0_ParentArrow" markerWidth="9" markerHeight="9" refX="0" refY="5" orient="auto"><path d="M 1 1 L 1 8 L 8 5 L 1 1" class="roofline_parent_arrow"></path></marker></defs><defs id="SVG_0_fill_patterns"><pattern id="SVG_0_loopFill-6-4-cl" patternContentUnits="objectBoundingBox" width="100%" height="100%"><circle cx=".5" cy=".5" r=".5" fill="white"></circle><circle cx=".5" cy=".5" r="0.3333333333333333" fill="green" stroke="black" stroke-width="0.05"></circle></pattern><pattern id="SVG_0_loopFill-8-4-cl" patternContentUnits="objectBoundingBox" width="100%" height="100%"><circle cx=".5" cy=".5" r=".5" fill="white"></circle><circle cx=".5" cy=".5" r="0.25" fill="green" stroke="black" stroke-width="0.05"></circle></pattern><pattern id="SVG_0_loopFill-8-6-cl" patternContentUnits="objectBoundingBox" width="100%" height="100%"><circle cx=".5" cy=".5" r=".5" fill="white"></circle><circle cx=".5" cy=".5" r="0.375" fill="yellow" stroke="black" stroke-width="0.05"></circle></pattern></defs><defs><g id="SVG_0_expanderTemplate"><rect x="0" y="0" width="11" height="11" class="roofline_expander"></rect><line x1="2" y1="5.5" x2="9" y2="5.5" class="roofline_expander_horz_line"></line><line x1="5.5" y1="2" x2="5.5" y2="9" class="roofline_expander_vert_line"></line></g></defs><text x="2" y="2" style="font-size: 90%; writing-mode: tb; dominant-baseline: text-after-edge">GFLOPS</text><text x="720" y="572" style="font-size: 90%; text-anchor: end; dominant-baseline: text-after-edge"><tspan>FLOP/Byte</tspan><tspan style="font-size: 90%;"> (Arithmetic Intensity)</tspan></text>    </svg>  </g>  </svg>